<svg width="1200" height="760" viewBox="0 0 1200 760" fill="none" xmlns="http://www.w3.org/2000/svg">
  <defs>
    <linearGradient id="bg" x1="56" y1="42" x2="1098" y2="720" gradientUnits="userSpaceOnUse">
      <stop stop-color="#253A72"/>
      <stop offset="0.5" stop-color="#1C284A"/>
      <stop offset="1" stop-color="#101832"/>
    </linearGradient>
    <linearGradient id="card" x1="190" y1="190" x2="804" y2="638" gradientUnits="userSpaceOnUse">
      <stop stop-color="#5DE4C7"/>
      <stop offset="1" stop-color="#6F8DFF"/>
    </linearGradient>
  </defs>

  <rect x="32" y="32" width="1136" height="696" rx="42" fill="url(#bg)"/>
  <rect x="92" y="100" width="1016" height="560" rx="28" fill="#0C1327" stroke="#2F457E" stroke-width="4"/>
  <rect x="136" y="148" width="278" height="464" rx="20" fill="#121E3B"/>
  <rect x="168" y="190" width="214" height="56" rx="14" fill="#1B2D58"/>
  <rect x="168" y="274" width="214" height="56" rx="14" fill="#16274D"/>
  <rect x="168" y="358" width="214" height="56" rx="14" fill="#16274D"/>
  <rect x="168" y="442" width="214" height="56" rx="14" fill="#16274D"/>

  <rect x="446" y="148" width="616" height="256" rx="22" fill="#101A33"/>
  <rect x="478" y="182" width="312" height="188" rx="18" fill="url(#card)"/>
  <rect x="814" y="182" width="216" height="34" rx="10" fill="#304A88"/>
  <rect x="814" y="234" width="216" height="34" rx="10" fill="#243A72"/>
  <rect x="814" y="286" width="216" height="34" rx="10" fill="#243A72"/>
  <rect x="814" y="338" width="216" height="34" rx="10" fill="#243A72"/>

  <rect x="446" y="432" width="292" height="180" rx="20" fill="#101A33"/>
  <rect x="770" y="432" width="292" height="180" rx="20" fill="#101A33"/>
  <circle cx="558" cy="522" r="48" fill="#304A88"/>
  <path d="M531 522H585" stroke="#88F5E1" stroke-width="10" stroke-linecap="round"/>
  <path d="M558 495V549" stroke="#88F5E1" stroke-width="10" stroke-linecap="round"/>
  <circle cx="880" cy="522" r="48" fill="#304A88"/>
  <path d="M850 526L872 548L910 506" stroke="#88F5E1" stroke-width="10" stroke-linecap="round" stroke-linejoin="round"/>

  <text x="484" y="233" fill="#08111E" font-family="Arial, sans-serif" font-size="38" font-weight="700">Service Desk</text>
</svg>
